<?xml version="1.0" standalone="no"?><!DOCTYPE svg PUBLIC "-//W3C//DTD SVG 1.1//EN" "http://www.w3.org/Graphics/SVG/1.1/DTD/svg11.dtd"><svg t="1751856906628" class="icon" viewBox="0 0 1300 1024" version="1.1" xmlns="http://www.w3.org/2000/svg" p-id="2107" xmlns:xlink="http://www.w3.org/1999/xlink" width="253.90625" height="200"><path d="M430.875991 156.840327l-20.780713-5.323138 16.890727-13.256661-1.381968-21.394921 17.812039 11.925877 19.910584-7.882339-5.834979 20.62716 13.666134 16.481255-21.394921 0.818944-11.516404 18.119143-7.370499-20.11532zM854.270207 896.347053l-20.780712-5.323138 16.890727-13.256661-1.381969-21.394921 17.812039 11.925877 19.961768-7.882339-5.886162 20.62716 13.717317 16.481255-21.446104 0.818944-11.465221 18.119143-7.421683-20.11532zM562.521291 923.730504l10.902196 18.426247-21.241368-2.508017-14.177974 16.071783-4.145905-21.036633-19.705848-8.496547 18.733351-10.44154 1.996177-21.343737 15.713494 14.536262 20.934265-4.657746-9.008388 19.449928zM786.809668 98.9512l10.953381 18.426248-21.292553-2.508017-14.177973 16.071782-4.145906-21.036632-19.705848-8.496548 18.733351-10.44154 1.996177-21.39492 15.713495 14.587445 20.934264-4.657745-9.008388 19.449927zM242.518796 421.205792l-18.477431 10.902197 2.559201-21.292553-16.071783-14.126789 21.036633-4.19709 8.496547-19.654664 10.44154 18.733352 21.343737 1.996176-14.587446 15.713495 4.70893 20.934264-19.449928-9.008388z" fill="#FD9A08" p-id="2108"></path><path d="M1066.990996 642.116024l-18.426248 10.953381 2.508017-21.292553-16.071782-14.177974 21.036632-4.145905 8.496548-19.705848 10.44154 18.733351 21.343736 1.996177-14.536261 15.713494 4.657745 20.934265-19.449927-9.008388z" fill="#1CC397" p-id="2109"></path><path d="M242.518796 421.205792l-18.477431 10.902197 2.559201-21.292553-16.071783-14.126789 21.036633-4.19709 8.496547-19.654664 10.44154 18.733352 21.343737 1.996176-14.587446 15.713495 4.70893 20.934264-19.449928-9.008388zM1066.990996 642.116024l-18.426248 10.953381 2.508017-21.292553-16.071782-14.177974 21.036632-4.145905 8.496548-19.705848 10.44154 18.733351 21.343736 1.996177-14.536261 15.713494 4.657745 20.934265-19.449927-9.008388zM574.703088 99.923697l-17.402567-12.488901 20.524792-6.244451 6.500371-20.422424 12.232981 17.607303 21.446104-0.153552-12.949557 17.095463 6.756291 20.37124-20.217688-7.012211-17.300199 12.693637 0.409472-21.446104zM700.871698 943.897008l-17.402567-12.488901 20.524792-6.24445 6.500371-20.422424 12.232981 17.607303 21.446104-0.153552-12.898373 17.095462 6.756291 20.37124-20.268872-7.01221-17.300199 12.693637 0.409472-21.446105zM303.17186 279.22132l-21.190184 3.480513 10.083252-18.886903-9.827332-19.09164 21.087816 3.787618 15.099286-15.252838 2.917489 21.241368 19.194008 9.622596-19.296376 9.366676-3.224593 21.190184-14.843366-15.457574zM991.341014 784.202865l-21.190185 3.480513 10.134436-18.938087-9.878516-19.040456 21.139001 3.787617 15.048102-15.252838 2.968673 21.241369 19.142823 9.571412-19.296375 9.366675-3.224594 21.241369-14.843365-15.457574z" fill="#FD9A08" p-id="2110"></path><path d="M407.075421 90.966493a486.708849 486.708849 0 0 1 504.469705 11.209301l25.131354-14.433894A511.840203 511.840203 0 0 0 139.536547 547.835059l24.977802-14.38271a486.708849 486.708849 0 0 1 242.561072-442.485856zM893.323615 933.199548A486.811218 486.811218 0 0 1 389.007462 921.990247l-24.977802 14.433894A511.840203 511.840203 0 0 0 1160.862489 476.17743l-24.977802 14.38271a486.862402 486.862402 0 0 1-242.561072 442.639408z" fill="#FD9A08" p-id="2111"></path><path d="M813.834831 795.770453a326.861154 326.861154 0 0 1-258.121015 29.7891l-29.737915 17.197831a353.16974 353.16974 0 0 0 472.479691-272.810829l-29.789099 17.197831A326.707602 326.707602 0 0 1 813.834831 795.770453zM486.257101 228.395588a326.707602 326.707602 0 0 1 258.06983-29.7891l29.7891-17.197831A353.16974 353.16974 0 0 0 301.994628 454.219485l29.789099-17.19783A326.55405 326.55405 0 0 1 486.257101 228.395588zM1287.798859 374.372414a53.129013 53.129013 0 0 1-14.280341 11.925876L229.620423 988.99013a53.794405 53.794405 0 0 1-73.397885-19.654664L7.17467 711.265636a53.794405 53.794405 0 0 1 19.705848-73.397886L1070.778613 35.124727a53.845589 53.845589 0 0 1 73.397885 19.705848l148.996684 258.06983a53.896773 53.896773 0 0 1-5.374323 61.472009z m-27.076346-10.236804a28.100027 28.100027 0 0 0 10.236804-38.4392l-148.945499-258.06983a28.151211 28.151211 0 0 0-38.4392-10.236804L39.676523 660.030431a28.100027 28.100027 0 0 0-10.236804 38.4392l148.996683 258.06983a28.100027 28.100027 0 0 0 38.4392 10.236804l1044.154015-602.691839z" fill="#FD9A08" p-id="2112"></path><path d="M492.450367 732.660556L481.138699 720.069287a126.782818 126.782818 0 0 0 14.280341-6.807475c5.118402-2.968673 5.886162-7.575235 2.252097-13.870869l-29.942652-51.849413c-4.45301 6.398003-9.67378 13.205477-15.355206 20.473608l-12.693637-13.154293a232.170716 232.170716 0 0 0 19.245192-22.776889l-28.458315-49.290211-20.473609 11.823508-8.496547-14.740998 20.473608-11.823508L399.244266 528.896971l14.689814-8.496547 22.572153 39.053407 14.945734-8.598915 8.496547 14.689814-14.63863 8.650099 24.261226 42.022081c3.582881-5.630242 7.114579-11.977061 10.69746-18.989272l8.957204 15.355206c-3.531697 6.961027-7.114579 13.307845-10.646276 18.938088l36.340654 62.956345q10.799828 18.835719-6.449186 28.765419z m53.487302-193.680333l-8.240628 11.311669q-4.248274-3.838802-6.909843-5.988531a499.863143 499.863143 0 0 1-50.67218 40.384192l-8.957203-11.260484a22.776889 22.776889 0 0 0 5.118402-15.355206 253.053797 253.053797 0 0 0-1.228417-28.304763l-23.698201 13.666133-8.138259-14.075606L476.020297 510.829012A222.650489 222.650489 0 0 0 457.389313 496.651038L470.901895 485.185818l4.555377 3.941169 4.657746 4.145906c3.582881 3.224593 6.909843 6.346819 9.9297 9.315492l30.710412-17.863223 8.13826 14.075605-39.309328 22.674521a221.933912 221.933912 0 0 1 0.307104 39.411696q7.063395-5.527874 15.66231-12.744821l7.370499-5.988531 7.165763-5.834978q-7.677603-5.834978-15.66231-10.902196l8.90602-9.67378a220.091288 220.091288 0 0 1 32.604221 23.237545z m-2.098545 115.624702l21.292552 36.903679-13.666133 7.882339-61.420825-106.462762 60.550696-34.856318 51.184021 88.753091c6.449187 11.260484 3.94117 20.166504-7.575235 26.820427l-12.898373 7.268131-11.055749-11.260485 12.540085-6.346818c5.118402-3.071041 6.500371-6.909843 3.787618-11.618773l-9.469044-16.430071z m10.236804-59.373463l-9.878516-17.044279-33.269613 19.194007 9.827331 17.095463z m-26.666875 30.710412l10.032068 17.095463 33.269613-19.194008-9.878516-17.095463z m35.828814-82.303905c0.358288 6.24445 0.460656 11.977061 0 17.197831l-14.89455-5.579058q-0.665392-43.250497-25.33609-100.371864l15.355206-5.425506c5.118402 12.488901 9.16194 24.31241 12.693638 35.316974l37.364334-21.548473 8.240628 14.331526-8.957204 5.118402q30.710412 55.12519 38.695119 102.009752a140.346584 140.346584 0 0 0 51.184021 25.08017l-1.330785 17.812039a143.724729 143.724729 0 0 1-47.294034-22.776889 152.784301 152.784301 0 0 1-5.118403 53.129013l-14.945733-8.189443a133.078453 133.078453 0 0 0 3.634065-57.274919 389.715131 389.715131 0 0 1-49.494948-48.778371z m-7.165762-42.482737c1.689073 7.165763 2.917489 13.000741 3.787617 17.402567a422.984744 422.984744 0 0 0 48.317715 51.18402 350.968828 350.968828 0 0 0-32.911325-79.744703zM821.819538 301.742289L925.415995 481.295832l-14.945734 8.6501-5.118402-9.16194-141.267896 81.536144 5.118402 9.16194-14.89455 8.6501-103.647641-179.553544z m-65.771466 246.809346l141.267896-81.536144-82.559825-143.008153-141.267896 81.587328z m-33.781453-126.987555L804.621707 373.80939l43.864706 76.00827-82.355089 47.549955zM826.477284 445.467018l-28.714235-49.699684-53.58967 30.710412L772.887615 476.17743z" fill="#FD9A08" p-id="2113"></path></svg>