<?xml version="1.0" standalone="no"?><!DOCTYPE svg PUBLIC "-//W3C//DTD SVG 1.1//EN" "http://www.w3.org/Graphics/SVG/1.1/DTD/svg11.dtd"><svg t="1750757486293" class="icon" viewBox="0 0 1301 1024" version="1.1" xmlns="http://www.w3.org/2000/svg" p-id="2107" xmlns:xlink="http://www.w3.org/1999/xlink" width="254.1015625" height="200"><path d="M784.326394 99.068078l10.930925 18.380871-21.308798-2.570069-14.184176 16.071063-4.066564-21.08107-19.779769-8.490986 18.738728-10.47547 2.082081-21.308797 15.713205 14.542034 20.950939-4.652149-9.076571 19.552041z m283.293136 543.325526l-18.511 10.833328 2.570068-21.308798-16.071062-14.184176 21.08107-4.066564 8.490986-19.682172 10.47547 18.738729 21.308797 1.984483-14.672164 15.713205 4.782279 20.950939-19.421911-8.946441z" fill="#13C463" p-id="2108"></path><path d="M1067.652063 642.393604l-18.511001 10.833328 2.570069-21.308798-16.071062-14.184176 21.081069-4.066564 8.490986-19.682172 10.47547 18.738729 21.308797 1.984483-14.672164 15.713205 4.78228 20.950939-19.421912-8.946441zM572.149334 99.881391l-17.469961-12.55755 20.593082-6.181178 6.506503-20.495484 12.232225 17.567558 21.406395-0.13013-12.915408 17.112102 6.766763 20.365354-20.267757-6.99449-17.33983 12.68768 0.455455-21.406394z m419.604372 684.516639l-21.178666 3.480979 10.117612-18.966456-9.792287-18.966456 21.081069 3.708707 15.127619-15.257749 2.895394 21.308797 19.194184 9.662157-19.324314 9.304299-3.253251 21.178667-14.899892-15.485477zM428.160424 156.553032l-20.723212-5.237735 16.884375-13.273266-1.398898-21.406395 17.795286 12.004498 20.007496-7.905401-5.920917 20.593082 13.728721 16.526517-21.406395 0.813313-11.51651 18.153143-7.449946-20.267756z m426.338604 739.919511l-20.723212-5.367865 16.884375-13.273266-1.398898-21.308797 17.795285 11.874368 20.007497-7.905401-5.920918 20.723212 13.728721 16.526517-21.536525 0.813313-11.418912 18.055545-7.449946-20.137626z m-291.784124 27.229715l10.833328 18.38087-21.308797-2.570068-14.184177 16.071062-4.066564-21.08107-19.682171-8.490986 18.738728-10.345339 1.984484-21.406395 15.713204 14.672164 20.950939-4.78228-8.946441 19.552042zM242.855221 420.651985L224.47435 431.58291l2.570069-21.308797-16.071062-14.184177 21.081069-4.196694 8.490987-19.682171 10.345339 18.738728 21.406395 2.082081-14.542034 15.713205 4.652149 20.950939-19.552041-9.076572z" fill="#13C463" p-id="2109"></path><path d="M242.887754 420.651985l-18.380871 10.930925 2.570069-21.308797-16.071063-14.184177 21.08107-4.196694 8.490986-19.682171 10.34534 18.738728 21.406394 2.082081-14.542034 15.713205 4.65215 20.950939-19.552041-9.076572z m458.253 523.318029l-17.46996-12.459953 20.495484-6.278775 6.506503-20.495484 12.329823 17.697688 21.406394-0.130131-12.915408 17.112103 6.636633 20.365354-20.267757-7.092088-17.242232 12.687681 0.455455-21.406395zM303.756088 278.680091l-21.178666 3.480979 10.117612-18.966456-9.889885-18.966456 21.178667 3.708707 15.030022-15.257749 2.895394 21.308797 19.194183 9.532027-19.324313 9.434429-3.253252 21.178667-14.769762-15.485477z" fill="#13C463" p-id="2110"></path><path d="M407.469745 90.446962C564.699388 0.006572 759.211292 4.463526 912.146643 102.093602l25.017504-14.444436C702.702315-70.556453 384.37166-8.712142 226.166041 225.74969a512.065032 512.065032 0 0 0-86.438891 321.095919l25.017504-14.444437c-7.580076-180.978379 85.918371-351.221027 242.692558-441.95421z m486.165898 842.917452c-157.294708 90.505456-351.839145 86.015969-504.807029-11.64664l-24.919906 14.444437c234.364235 158.335748 552.727422 96.719166 711.063171-137.677602 63.861326-94.539487 94.344292-207.687573 86.601554-321.518841l-24.919907 13.956448c7.677673 181.206106-85.983436 351.676482-243.017883 442.409666z" fill="#13C463" p-id="2111"></path><path d="M814.744295 795.849475a327.589409 327.589409 0 0 1-258.275633 29.572056l-29.799784 17.112103c182.670069 68.513476 386.291078-24.074061 454.804554-206.74413 7.970466-21.308797 13.891384-43.300777 17.632623-65.748212l-29.799784 17.112102c-20.495484 87.935387-76.451409 163.443353-154.561976 208.696081zM486.979211 227.831771a327.543863 327.543863 0 0 1 257.917775-29.572056l29.799783-17.112102c-182.735134-68.318281-386.258545 24.431918-454.576826 207.199585-7.905401 21.146134-13.761254 43.007984-17.502493 65.292757l29.799784-17.112103c20.495484-87.935387 76.451409-163.443353 154.561977-208.696081z m801.731288 146.656576a53.799019 53.799019 0 0 1-14.444436 11.64664L229.51689 989.060079c-25.733219 14.769762-58.558526 5.985983-73.458418-19.682171L7.222218 710.549222c-14.802294-25.603089-6.08358-58.330799 19.486976-73.165625 0.097598-0.065065 0.195195-0.097598 0.292793-0.162663L1071.75116 34.6537c25.733219-14.769762 58.558526-5.985983 73.458418 19.682171l148.868786 258.405763c7.189686 12.297291 9.109104 27.001987 5.367865 40.730708a55.598067 55.598067 0 0 1-10.703197 21.08107zM32.239722 665.62182a28.010495 28.010495 0 0 0-2.895394 32.467449l148.868787 258.047906c7.840336 13.403396 25.017504 18.023013 38.518497 10.345339l1044.749173-602.079247c13.500994-7.742738 18.153143-24.952439 10.410404-38.453432 0 0 0-0.065065-0.032532-0.065065l-148.868787-258.275633a28.260995 28.260995 0 0 0-38.420899-10.34534L39.689668 659.343044c-2.830329 1.626626-5.367865 3.773772-7.449946 6.278776z" fill="#13C463" p-id="2112"></path><path d="M401.809087 528.464738c2.570069 31.328812-3.448447 63.568533-18.088078 96.751698l-13.435928-12.55755c11.711705-28.368353 16.331322-55.858328 13.891383-82.53499l17.632623-1.626625z m37.282262 46.228703c1.594093 14.997489 1.463963 30.092576-0.357858 45.285261l64.544509 111.78172-15.257749 8.816311-54.329299-94.116565c-2.927926 12.297291-7.189686 25.147634-12.752746 38.583563l-13.435929-12.557551c12.817811-32.922905 17.535025-64.999964 14.216709-96.296243l17.404896-1.496496z m28.238223-91.416366l15.257749-8.816311 13.891384 24.074061 49.709682-28.693678 8.295791 14.346839-49.709682 28.693678 15.940932 27.620105 58.753721-33.931413 8.425922 14.574566-131.659087 76.028487-8.425921-14.574567 57.647616-33.280762-15.940932-27.620105-49.254227 28.433418-8.295792-14.346839 49.254227-28.433418-13.891383-24.074061z m5.56306 140.247671l85.723176-49.481955-9.43443-16.331322 15.9084-9.174169 9.434429 16.331322 25.830817-14.932424 8.556051 14.802294-25.830816 14.932424 32.792774 56.769238c8.328324 14.444436 5.367865 25.765752-8.913909 34.02901l-31.361344 18.120611-12.329823-13.208201c11.77677-5.82332 21.764252-11.093587 30.027511-15.843335 7.352348-4.261759 8.848844-10.21521 4.424422-17.86035l-30.482966-52.800271-85.723176 49.481954-8.556051-14.802294z m87.089541 24.822308l-7.254751 15.973465c-13.566059-6.506503-29.604588-12.362356-48.148121-17.567558l7.905401-14.867359c19.356846 5.3028 35.200181 10.800795 47.497471 16.461452zM734.161256 442.611432c7.872869 31.003486 9.629624 56.996966 5.237735 77.980438l-17.697688-3.611109c4.099097-20.820809 2.472471-44.732208-4.879877-71.701663l17.33983-2.635133z m-17.535025-101.794238l16.363855-9.434429 24.627113 42.650127 70.465427-40.698176 6.148645 11.158652 5.888385 10.73573c4.65215 8.718714 8.230726 15.485477 10.833327 20.267757l9.95495-14.899892c22.154642 13.923916 45.187663 30.157641 69.099061 48.766239l-10.508002 15.485477c-24.269256-19.584574-47.042016-35.883364-68.318281-48.928902 12.329823 23.716203 21.178667 41.478956 26.611597 53.255727 11.38638 24.854841 17.437428 43.463439 18.088078 55.825795 0.227728 11.64664-4.91241 21.081069-15.452944 28.368352l-24.952439 14.411904-13.338331-12.915408c7.775271-3.903902 15.030022-7.807803 21.829317-11.711705 11.483978-6.636633 14.704697-18.901391 9.662157-36.794274-5.888385-18.380871-23.553541-54.557027-52.897869-108.495936l-55.012482 31.751734c18.445936 37.054534 29.084068 69.619581 31.914397 97.630076 2.505004 30.548031-5.465462 60.41288-24.008996 89.562013l-16.656647-8.946442c17.404895-28.33582 24.594581-56.899368 21.471459-85.755708-3.676174-24.399386-13.305798-52.117088-28.888872-83.18564l-54.784755 31.621604-8.783779-15.257749 55.24021-31.881864-24.627114-42.650127z" fill="#13C463" p-id="2113"></path></svg>