<?xml version="1.0" standalone="no"?><!DOCTYPE svg PUBLIC "-//W3C//DTD SVG 1.1//EN" "http://www.w3.org/Graphics/SVG/1.1/DTD/svg11.dtd"><svg t="1750577791549" class="icon" viewBox="0 0 1300 1024" version="1.1" xmlns="http://www.w3.org/2000/svg" p-id="2107" xmlns:xlink="http://www.w3.org/1999/xlink" width="253.90625" height="200"><path d="M784.014714 99.204787l10.903312 18.428134-21.294732-2.559463-14.179425 16.124617-4.095141-21.089976-19.707865-8.497417 18.735269-10.442609 2.04757-21.345922 15.715103 14.58894 20.936408-4.658223-9.060499 19.451919zM1067.142514 642.37403l-18.428134 10.903312 2.559463-21.294732-16.073428-14.179425 21.038786-4.14633 8.497417-19.656676 10.442609 18.735269 21.345922 1.996381-14.588939 15.715103 4.658222 20.936408-19.451918-9.00931z" fill="#F45151" p-id="2108"></path><path d="M1067.142514 642.37403l-18.428134 10.903312 2.559463-21.294732-16.073428-14.179425 21.038786-4.14633 8.497417-19.656676 10.442609 18.735269 21.345922 1.996381-14.588939 15.715103 4.658222 20.936408-19.451918-9.00931zM571.886418 100.023815l-17.404348-12.541369 20.526893-6.1939 6.501036-20.424515 12.234233 17.609105 21.448301-0.153567-12.950883 17.097213 6.756982 20.373325-20.270947-7.012928-17.250781 12.694936 0.409514-21.4483zM991.382408 784.373039l-21.192354 3.480869 10.135474-18.888837-9.828338-19.093594 21.089975 3.788005 15.100832-15.254399 2.917788 21.243543 19.144783 9.623581-19.298351 9.367634-3.224923 21.192354-14.844886-15.459156zM427.993407 156.792705l-20.78284-5.323683 16.892456-13.258019-1.330921-21.397111 17.762674 11.927098 19.963811-7.883146-5.886765 20.629272 13.667533 16.534131-21.397111 0.819028-11.517584 18.069809-7.371253-20.117379zM854.19519 896.42633l-20.731651-5.323683 16.841267-13.258019-1.330921-21.397111 17.813863 11.978287 19.912622-7.934335-5.835575 20.629272 13.667532 16.534131-21.4483 0.819028-11.517584 18.069809-7.371253-20.117379zM562.416405 923.607827l10.903313 18.428134-21.294733-2.559463-14.179425 16.073428-4.14633-21.038786-19.656676-8.497418 18.735269-10.442609 1.996381-21.345921 15.715103 14.588939 20.936408-4.658223-9.00931 19.451919zM242.790663 420.724532l-18.479324 10.954502 2.559464-21.294733-16.073428-14.230614 21.038786-4.095141 8.497417-19.707865 10.442609 18.735269 21.345922 2.047571-14.588939 15.715103 4.709412 20.936407-19.451919-9.060499z" fill="#F45151" p-id="2109"></path><path d="M242.790663 420.724532l-18.479324 10.954502 2.559464-21.294733-16.073428-14.230614 21.038786-4.095141 8.497417-19.707865 10.442609 18.735269 21.345922 2.047571-14.588939 15.715103 4.709412 20.936407-19.451919-9.060499zM700.780976 943.878774l-17.404348-12.490179 20.475704-6.24509 6.552225-20.424515 12.234233 17.609106 21.448301-0.102379-12.950883 17.097213 6.756982 20.322136-20.270947-7.012928-17.30197 12.694936 0.460703-21.4483zM303.552315 278.827902l-21.192354 3.42968 10.135473-18.888837-9.828338-19.042405 21.089976 3.788006 15.100832-15.2544 2.917787 21.243543 19.144784 9.623581-19.298351 9.316445-3.224924 21.243544-14.844885-15.459157z" fill="#F45151" p-id="2110"></path><path d="M407.620081 90.604991a486.861057 486.861057 0 0 1 504.521352 11.77353l25.031548-14.435371a511.892605 511.892605 0 0 0-797.528678 459.57718l25.031548-14.384182A486.758678 486.758678 0 0 1 407.620081 90.604991zM893.201406 933.333787a486.861057 486.861057 0 0 1-504.521351-11.619963l-24.980359 14.384183A511.892605 511.892605 0 0 0 1161.177185 476.572015L1136.401583 490.956197a486.912246 486.912246 0 0 1-243.200177 442.37759z" fill="#F45151" p-id="2111"></path><path d="M813.909242 795.839433a326.587482 326.587482 0 0 1-258.147441 29.536203l-29.792149 17.199592a353.205897 353.205897 0 0 0 472.73282-272.429245l-29.792149 17.148403A326.843428 326.843428 0 0 1 813.909242 795.839433zM486.861057 228.099345a326.587482 326.587482 0 0 1 258.14744-29.536204l29.79215-17.199591A353.205897 353.205897 0 0 0 302.016637 453.792794l29.843339-17.148402a326.485103 326.485103 0 0 1 155.001081-208.545047zM1288.280119 374.705387a53.441588 53.441588 0 0 1-14.384182 11.978287l-1044.260914 601.934514a53.799913 53.799913 0 0 1-73.4054-19.759055L7.217686 710.660503a53.697534 53.697534 0 0 1 19.707865-73.405399L1071.442411 35.32059a53.799913 53.799913 0 0 1 73.4054 19.759054l148.80718 258.19863a53.953481 53.953481 0 0 1-5.374872 61.427113zM32.198045 665.716333a28.102904 28.102904 0 0 0-2.815409 32.146855l148.80718 258.19863a28.154093 28.154093 0 0 0 38.443134 10.237852L1261.149811 364.518724a28.154093 28.154093 0 0 0 10.237852-38.443135l-148.755991-258.249819a28.102904 28.102904 0 0 0-38.391945-10.237852L39.722866 659.420054a27.130308 27.130308 0 0 0-7.524821 6.296279z" fill="#F45151" p-id="2112"></path><path d="M497.047719 600.552404L358.324823 680.817165l38.750271 67.10912c5.118926 9.265256 12.541369 11.210448 21.653057 5.989144l114.459186-66.085336a21.243543 21.243543 0 0 0 10.237852-11.159259q2.610652-9.828338-16.943645-47.452444l18.479323-4.095141q20.475704 43.306114 18.172188 56.308187a36.088429 36.088429 0 0 1-16.175807 19.503108L423.335184 771.882859q-25.287495 14.588939-40.490705-11.77353l-68.030527-117.735299 16.073428-9.265256 18.581701 32.198045 122.342333-70.64118-33.733723-58.355757-150.496426 87.021743-9.009309-15.663914L445.346566 511.073577zM623.587571 533.69923c-4.81179 7.422443-11.619962 16.841267-20.475704 28.410039l38.75027 67.109121q10.237852 17.660295-6.142711 27.079119l-22.779221 13.15564-12.131855-13.258019c8.343849-3.839195 15.356778-7.473632 21.448301-10.903312 4.14633-2.405895 4.81179-6.091522 1.996381-11.005691l-33.068263-57.229593q-15.356778 17.660295-24.929169 28.102904l-13.411587-14.025858a323.106612 323.106612 0 0 0 29.0755-30.201664l-29.894528-51.85472-31.174259 18.172187-8.958121-15.356778 31.276638-18.069809-23.342303-40.490705 15.356778-8.906931 23.393493 40.490705 27.283875-15.766293 8.906932 15.356779-27.283876 15.766292 26.567226 46.070334q11.517584-15.356778 20.015001-28.870743z m132.170671-32.453991l-86.765797 50.114286 25.287495 43.818007L794.457323 537.487235l8.906931 15.356778-116.506757 67.262689-109.084314-189.041939 112.616373-64.907983 8.906932 15.356778-96.286999 55.540348 21.499489 37.163403 87.021743-50.114286z m-122.854225-12.080666l27.130308 46.991741 71.357829-40.951408-27.130308-46.940552zM763.743767 318.346011a459.986695 459.986695 0 0 1 7.831956 87.94315c8.395039-6.501036 16.175806-12.746126 23.393492-18.940027l-0.614271-7.678389-0.819028-8.190282c-0.358325-6.142711-0.819028-11.722341-1.38211-16.790077l17.097213-2.968977q5.52844 73.098264 1.330921 108.6748a357.812931 357.812931 0 0 0 37.624106-39.671677l8.241471 14.332993a358.324823 358.324823 0 0 1-53.697534 53.083263L789.850289 476.060123a24.775602 24.775602 0 0 0 4.811791-8.702175 294.594194 294.594194 0 0 0 1.38211-61.427112q-10.749745 9.214067-29.638582 24.570845l-12.541369-12.438991a17.557916 17.557916 0 0 0 3.224924-9.930716 447.496515 447.496515 0 0 0-11.927098-86.714607z m118.810273 156.792705A412.227115 412.227115 0 0 1 826.604178 537.487235l-10.903312-14.230614a377.93031 377.93031 0 0 0 57.946243-63.577062zM936.763467 298.382199l39.518109 68.388852-89.683584 51.803532 24.570845 42.8966c3.532059 6.142711 8.599796 7.371254 15.356778 3.736816l58.81646-33.938479a19.093594 19.093594 0 0 0 9.828338-15.356778 124.441092 124.441092 0 0 0-11.466394-31.276639l17.711484-3.941573a163.805634 163.805634 0 0 1 12.131855 34.296805c1.740435 11.517584-3.276113 20.987597-14.947264 28.307661l-69.310259 40.030002q-19.195973 11.05688-30.048096-7.678389L837.302734 368.562676l-2.457085 9.162877-16.329374-6.091522a225.232746 225.232746 0 0 0 5.630819-94.392996l17.353159-5.52844c1.074974 9.111688 1.791624 16.738888 2.201138 22.881599L895.812059 264.341341l7.012928 12.080666a270.228106 270.228106 0 0 1-2.303516 43.050168z m-54.362995 31.379017a245.70845 245.70845 0 0 0 3.685627-40.644273l-42.026383 24.26371a243.712069 243.712069 0 0 1-3.890384 40.951408z m2.968977 17.967431l-29.74096 17.148402 22.574464 39.159784 29.74096-17.199591z m36.856268 30.713556l30.713556-17.557917-22.625653-39.159784-30.406421 17.609106z" fill="#F45151" p-id="2113"></path></svg>