<?xml version="1.0" standalone="no"?><!DOCTYPE svg PUBLIC "-//W3C//DTD SVG 1.1//EN" "http://www.w3.org/Graphics/SVG/1.1/DTD/svg11.dtd"><svg t="1753081122204" class="icon" viewBox="0 0 1300 1024" version="1.1" xmlns="http://www.w3.org/2000/svg" p-id="2554" xmlns:xlink="http://www.w3.org/1999/xlink" width="253.90625" height="200"><path d="M440.029023 129.098588l-17.760855-11.977061 1.330784 21.446105-16.839542 13.205477 20.780712 5.323138 7.370499 20.166504 11.46522-18.119143 21.446105-0.818944-13.666133-16.532439 5.834978-20.62716-19.961768 7.933523zM866.852569 868.29821l-17.812039-11.925877 1.330784 21.394921-16.839543 13.256661 20.780713 5.323138 7.370499 20.11532 11.46522-18.119143 21.446105-0.818944-13.666134-16.481255 5.834979-20.62716-19.910584 7.882339zM534.873013 894.40206l-1.996177 21.343737-18.733352 10.44154 19.705848 8.496547 4.145906 21.036633 14.177974-16.071783 21.292552 2.508017-10.902196-18.426247 9.008387-19.449928-20.934264 4.657746-15.764678-14.536262zM771.547923 84.466122l-15.713495-14.587445-1.996176 21.343736-18.733352 10.492724 19.654664 8.496548 4.145906 21.036632 14.177973-16.122966 21.292553 2.559201-10.902197-18.426248 9.008388-19.501111-20.934264 4.708929zM242.509888 421.205792l19.501112 9.008388-4.70893-20.934264 14.587446-15.713495-21.343736-1.996176-10.441541-18.733352-8.547731 19.654664-21.036632 4.19709 16.122966 14.126789-2.559201 21.292553 18.426247-10.902197zM1067.033272 642.116024l19.449928 9.008388-4.70893-20.934265 14.587446-15.713494-21.343737-1.996177-10.44154-18.733351-8.496547 19.705848-21.036633 4.145905 16.071783 14.177974-2.559201 21.292553 18.477431-10.953381zM588.206762 108.932084l20.268872 7.063395-6.756291-20.37124 12.949557-17.095463-21.446104 0.153552-12.284165-17.607303-6.500371 20.422424-20.524792 6.244451 17.453751 12.488901-0.409472 21.446104 17.249015-12.744821zM717.753517 952.649476l20.268872 7.01221-6.75629-20.37124 12.949557-17.095462-21.446105 0.153552-12.284165-17.607303-6.50037 20.422424-20.524792 6.24445 17.453751 12.488901-0.409473 21.446105 17.249015-12.693637zM303.367689 248.510908l-21.087817-3.787618 9.827332 19.09164-10.083252 18.886903 21.139001-3.480513 14.894549 15.457574 3.224594-21.190184 19.245191-9.366676-19.142823-9.622596-2.968673-21.241368-15.048102 15.252838zM991.536842 753.492452l-21.087816-3.787617 9.827332 19.040456-10.083252 18.938087 21.139-3.480513 14.89455 15.457574 3.224593-21.241369 19.296376-9.366675-19.194008-9.571412-2.917489-21.241369-15.099286 15.252838z" fill="#13C463" p-id="2555"></path><path d="M407.066514 90.966493a486.811218 486.811218 0 0 1 504.520888 11.209301l25.08017-14.433894A511.840203 511.840203 0 0 0 139.527639 547.835059l24.977802-14.38271a486.811218 486.811218 0 0 1 242.561073-442.485856zM893.314707 933.199548A486.708849 486.708849 0 0 1 388.998555 921.990247l-24.977802 14.433894A511.840203 511.840203 0 0 0 1160.904766 476.17743l-25.028986 14.38271a486.657665 486.657665 0 0 1-242.561073 442.639408z" fill="#13C463" p-id="2556"></path><path d="M998.600237 569.946555l-29.7891 17.197831a326.861154 326.861154 0 0 1-412.901492 238.415167l-29.7891 17.197831a353.16974 353.16974 0 0 0 472.479692-272.810829zM486.248193 228.395588a326.861154 326.861154 0 0 1 258.121015-29.7891l29.7891-17.197831A353.16974 353.16974 0 0 0 301.98572 454.219485l29.7891-17.19783A326.656418 326.656418 0 0 1 486.248193 228.395588zM1144.218775 54.830575a53.794405 53.794405 0 0 0-73.449069-19.654664L26.871611 637.86775a53.692037 53.692037 0 0 0-19.654664 73.397886l148.996683 258.06983a53.845589 53.845589 0 0 0 73.449069 19.654664L1273.50961 386.29829a52.668357 52.668357 0 0 0 14.38271-11.97706 54.408614 54.408614 0 0 0 10.69746-20.473608 53.589669 53.589669 0 0 0-5.374322-40.947217z m129.649123 292.209572a27.792923 27.792923 0 0 1-13.154293 17.095463L216.866694 966.827449a28.202395 28.202395 0 0 1-38.490383-10.236804L29.379628 698.469631a28.202395 28.202395 0 0 1 2.815121-32.194749 27.639371 27.639371 0 0 1 7.472867-6.244451l1044.154015-602.691839a28.202395 28.202395 0 0 1 38.490383 10.236804l148.740763 258.121014a28.048843 28.048843 0 0 1 2.815121 21.343737z" fill="#13C463" p-id="2557"></path><path d="M558.929502 638.840247c2.149729 8.803652-1.996177 16.17415-12.386533 22.213865l-89.674403 51.747044c-10.543908 6.090898-18.989272 3.531697-25.592011-7.626419l-30.710412-52.873093 108.714859-62.802793 6.398003 11.106933 15.355206-8.803652L482.358208 506.887842l-146.335114 84.65837 7.728787 13.461397 131.082276-75.649982 26.769242 46.679827-108.510123 62.802793-14.331525-24.926618-15.355207 9.008388 54.255062 94.588069q16.583623 28.714235 44.42773 12.642453l96.686614-55.841766q25.08017-14.536262 18.682168-38.183279a298.300471 298.300471 0 0 0-11.925877-33.320797 141.421448 141.421448 0 0 1-18.784536 3.582881 183.187609 183.187609 0 0 1 12.181797 32.450669zM583.497832 525.518826l-17.709671 2.968673a366.221666 366.221666 0 0 1 5.579058 68.023563c6.756291-0.614208 12.744821-1.02368 18.016775-1.177232q-1.740257-35.624078-5.886162-69.815004zM692.263875 462.971953q24.414778 19.60348 46.065619 39.514064l11.874692-13.87087q-25.59201-21.190184-47.242851-37.671439z" fill="#13C463" p-id="2558"></path><path d="M583.497832 433.182853l-15.355206 8.803652c6.24445 11.158116 12.335349 22.316233 18.170327 33.371981l-53.384933 30.710412 8.650099 14.945734 52.617173-30.403308q27.639371 53.743221 28.253579 78.925759 2.815121 27.741739-19.859399 72.323021c5.579058 2.098545 11.106932 4.504194 16.532438 7.165763q24.56833-46.372722 21.446105-78.311551-1.381969-30.710412-31.273437-88.804276l52.821909-30.710412q26.820427 48.522451 46.065619 86.449811 12.437717 24.107674-5.118402 34.753949a371.391252 371.391252 0 0 1-36.135919 17.965592q7.677603 9.110756 12.591269 15.969414 18.784535-9.827332 34.958686-19.194008 28.867787-17.095463 10.595092-54.357429-15.867046-30.352124-56.66071-105.234346l-67.153435 38.797487c-5.630242-10.646276-11.618773-22.060313-17.760855-33.167245zM866.135992 507.553235l14.177974-8.189444-6.500371-11.260484 67.614091-39.053408 6.500371 11.260485 14.331526-8.189443-42.585105-73.807358-96.174775 55.432294z m-21.087816-69.303164L912.662267 399.4014l21.446104 37.108414-67.665275 39.053408zM818.125381 296.726255L803.589119 305.120434l16.788359 29.123708-50.365076 29.021339 7.524051 13.10311 50.365076-29.072524 16.378887 28.355947-44.376546 25.643194 7.575235 13.051926 103.442905-59.680568-7.524051-13.103109-44.581282 25.694378-16.378886-28.355947 50.9281-29.379628-7.575235-13.103109-50.876916 29.379627-16.788359-29.072523zM788.592202 535.346158q26.820427-26.615691 52.71954-49.853236c-2.559201-4.350642-5.118402-9.059572-7.472866-14.12679q-27.485819 26.308586-57.326103 52.258885z" fill="#13C463" p-id="2559"></path><path d="M763.102559 426.682483A272.298988 272.298988 0 0 1 757.523501 481.295832l10.646276 11.772325q31.631725-25.59201 50.16034-40.333008c-2.200913-4.70893-4.350642-9.622596-6.346818-14.792182q-14.177974 11.925877-36.443023 29.27726 3.889986-41.459056 4.70893-88.036515l-17.351383 1.074864c0.307104 10.902196 0.460656 21.036632 0.358288 30.710412-7.472867 4.657746-14.689814 9.059572-21.599656 13.307846q1.279601-26.615691-1.330785-76.776031l-16.94191 2.508017a368.832051 368.832051 0 0 1 2.508017 84.607186l10.595092 10.236804q11.925877-8.342995 26.61569-18.170327z" fill="#13C463" p-id="2560"></path></svg>