<?xml version="1.0" standalone="no"?><!DOCTYPE svg PUBLIC "-//W3C//DTD SVG 1.1//EN" "http://www.w3.org/Graphics/SVG/1.1/DTD/svg11.dtd"><svg t="1750578859658" class="icon" viewBox="0 0 1300 1024" version="1.1" xmlns="http://www.w3.org/2000/svg" p-id="2577" xmlns:xlink="http://www.w3.org/1999/xlink" width="253.90625" height="200"><path d="M772.138805 84.411091l-15.715103-14.58894-2.04757 21.345922-18.735269 10.442609 19.707865 8.497417 4.095141 21.089976 14.179425-16.124617 21.294732 2.559463-10.903312-18.428134 9.060499-19.451919-20.936408 4.658223zM1067.142514 642.37403l19.451918 9.00931-4.658222-20.936408 14.588939-15.715103-21.345922-1.996381-10.442609-18.735269-8.497417 19.656676-21.038786 4.14633 16.073428 14.179425-2.559463 21.294732 18.428134-10.903312zM588.727685 108.777179l20.270947 7.012928-6.756982-20.373325 12.950883-17.097213-21.448301 0.153567-12.234233-17.609105-6.501036 20.424515-20.526893 6.1939 17.404348 12.541369-0.409514 21.4483 17.250781-12.694936zM991.587165 753.659482l-21.089975-3.788005 9.828338 19.093594-10.135474 18.888837 21.192354-3.480869 14.844886 15.459156 3.224923-21.192354 19.298351-9.367634-19.144783-9.623581-2.917788-21.243543-15.100832 15.254399zM440.534776 128.74099l-17.762674-11.927098 1.330921 21.397111-16.892456 13.258019 20.78284 5.323683 7.371253 20.117379 11.517584-18.069809 21.397111-0.819028-13.667533-16.534131 5.886765-20.629272-19.963811 7.883146zM866.787748 868.425804l-17.813863-11.978287 1.330921 21.397111-16.841267 13.258019 20.731651 5.323683 7.371253 20.117379 11.517584-18.069809 21.4483-0.819028-13.667532-16.534131 5.835575-20.629272-19.912622 7.934335zM534.774204 894.225192l-1.996381 21.345921-18.735269 10.442609 19.656676 8.497418 4.14633 21.038786 14.179425-16.073428 21.294733 2.559463-10.903313-18.428134 9.00931-19.451919-20.936408 4.658223-15.715103-14.588939zM242.739473 420.724532l19.503109 9.060499-4.709412-20.936407 14.588939-15.715103-21.345922-2.047571-10.442609-18.735269-8.497417 19.707865-21.038786 4.095141 16.073428 14.230614-2.559464 21.294733 18.428134-10.954502zM717.622243 952.632138l20.270947 7.012928-6.756982-20.322136 12.950883-17.097213-21.448301 0.102379-12.234233-17.609106-6.552225 20.424515-20.475704 6.24509 17.404348 12.490179-0.460703 21.4483 17.30197-12.694936zM303.757072 248.114346l-21.089976-3.788006 9.828338 19.042405-10.135473 18.888837 21.192354-3.42968 14.844885 15.459157 3.224924-21.243544 19.298351-9.316445-19.144784-9.623581-2.917787-21.243543-15.100832 15.2544z" fill="#13C463" p-id="2578"></path><path d="M407.620081 90.604991a486.861057 486.861057 0 0 1 504.521352 11.77353l25.031548-14.435371a511.892605 511.892605 0 0 0-797.528678 459.57718l25.031548-14.384182A486.758678 486.758678 0 0 1 407.620081 90.604991zM893.201406 933.333787a486.861057 486.861057 0 0 1-504.521351-11.619963l-24.980359 14.384183A511.892605 511.892605 0 0 0 1161.177185 476.572015L1136.401583 490.956197a486.912246 486.912246 0 0 1-243.200177 442.37759z" fill="#13C463" p-id="2579"></path><path d="M998.804851 570.145983l-29.79215 17.148403a326.792239 326.792239 0 0 1-413.148521 238.08125l-29.79215 17.199592a353.205897 353.205897 0 0 0 472.732821-272.429245zM486.861057 228.099345a326.587482 326.587482 0 0 1 258.14744-29.536204l29.79215-17.199591A353.205897 353.205897 0 0 0 302.016637 453.792794l29.843339-17.148402a326.485103 326.485103 0 0 1 155.001081-208.545047zM1071.442411 35.32059L26.925551 637.255104a53.697534 53.697534 0 0 0-19.707865 73.405399l148.80718 258.19863a53.799913 53.799913 0 0 0 73.4054 19.759055l1044.260914-601.934514a53.748724 53.748724 0 0 0 19.759054-73.4054l-148.602423-258.19863a53.799913 53.799913 0 0 0-73.4054-19.759054z m199.996441 290.754999a28.154093 28.154093 0 0 1-10.237852 38.443135l-1044.260914 601.883325a28.154093 28.154093 0 0 1-38.443135-10.237852L29.382636 697.863188a28.102904 28.102904 0 0 1 2.815409-32.146855 27.130308 27.130308 0 0 1 7.524821-6.296279L1084.239727 57.536729a28.102904 28.102904 0 0 1 38.391945 10.237852z" fill="#13C463" p-id="2580"></path><path d="M544.653732 672.985208a20.475704 20.475704 0 0 1-9.777149 10.903312l-112.616373 64.856793q-13.360397 7.729578-21.243543-5.835575L363.44375 677.029159l136.061054-78.575515-50.677368-87.789581-163.805634 94.546564 8.855742 15.356778 147.732206-85.281308 33.068263 57.280782-120.192384 69.310259-18.274566-31.583774-15.766292 9.111689 66.801985 115.687729q14.896075 25.901766 39.722866 11.568772l121.164979-69.924529a35.422968 35.422968 0 0 0 15.868671-19.144784q2.303517-12.746126-17.865052-55.233212l-18.120998 4.043952q19.298351 36.856268 16.63651 46.582227zM588.676496 411.664033l-15.049643 12.490179c4.504655 3.071356 9.828338 7.012929 15.91986 11.875909l-83.592062 48.271473 22.83041 39.518109 15.356778-8.906932-14.588939-25.236305 152.339239-87.94315 13.974668 24.161331 15.356778-8.855742-22.16495-38.238377-83.233737 48.066715C598.402455 419.751936 592.669258 414.63301 588.676496 411.664033z" fill="#13C463" p-id="2581"></path><path d="M621.079298 451.489278l-15.817482 9.214066 12.694937 21.909004-64.088954 36.958646 61.427112 106.473662 15.356778-8.906931-7.422442-13.104451 48.680986-28.102904 25.59463 44.585846 15.817482-9.162878-25.59463-44.534657 49.397636-28.512418 7.115307 12.285423 15.356778-8.906931-61.068787-105.603445-64.754415 37.36816z m42.487086 110.108099l-48.732176 28.102904-14.53775-25.236306 48.680987-28.102904zM640.889541 522.130457l-48.732176 28.102904-14.588939-25.236305 48.732176-28.102904z m87.891961 1.638056l-49.397637 28.512418-14.588939-25.031548 49.397636-28.563607z m-37.265782-64.549657l14.53775 25.236305-49.346447 28.512418-14.588939-25.236305zM951.76192 400.76072a248.370292 248.370292 0 0 0 7.6272-72.893507l-17.404348 0.71665a226.717235 226.717235 0 0 1-59.635489 164.368716l16.431753 8.702174a244.889422 244.889422 0 0 0 48.680986-85.486065 347.779836 347.779836 0 0 1 63.935387 21.038786l4.81179-18.01862a378.800528 378.800528 0 0 0-64.447279-18.428134z" fill="#13C463" p-id="2582"></path><path d="M843.08712 377.776742l-0.921406 1.38211-1.38211 1.689246 10.749744 11.05688q20.117379-12.797315 47.75958-30.713556a183.257553 183.257553 0 0 1-40.951408 82.875413l16.175806 8.241471q49.704772-60.19857 44.944171-145.172743l-16.63651 0.563082a196.054868 196.054868 0 0 1-0.819028 33.580155q-13.667533 9.265256-39.876434 26.771983 6.091522-21.038786 5.630819-63.833008l60.096192-34.706319-8.241471-14.230614-48.680987 28.102904a290.550243 290.550243 0 0 0-23.751817-18.786459l-14.691318 12.029477a167.747207 167.747207 0 0 1 23.035168 15.356778l-54.874888 31.686152L808.790316 338.361012l42.589465-24.570845q-0.102379 48.117905-8.292661 63.986575z" fill="#13C463" p-id="2583"></path><path d="M852.915458 413.046143q-30.713556-14.077047-55.745104-22.523275l-8.241471-14.281803 25.901766-14.947264-8.753364-15.356779-25.901766 14.947264-24.724413-42.794221-15.356778 8.753363 24.673224 42.794222-30.252853 17.455538 8.753363 15.356778 29.689771-17.097213a260.041443 260.041443 0 0 1 11.517584 96.952459l15.817482 12.234234a298.177442 298.177442 0 0 0-7.524822-76.374377l63.474683 109.954532 15.356778-8.753364-64.498468-111.746156c10.698555 5.118926 25.59463 12.950883 44.841792 23.905385z" fill="#13C463" p-id="2584"></path></svg>